<svg width="53" height="11" viewBox="0 0 53 11" fill="none" xmlns="http://www.w3.org/2000/svg">
<g clip-path="url(#clip0_25_288)">
<g opacity="0.2">
<path fill-rule="evenodd" clip-rule="evenodd" d="M5.71233 10.64C8.51242 10.64 10.7823 8.37009 10.7823 5.57C10.7823 2.76992 8.51242 0.5 5.71233 0.5C2.91225 0.5 0.642334 2.76992 0.642334 5.57C0.642334 8.37009 2.91225 10.64 5.71233 10.64Z" fill="white"/>
<path d="M10.4655 5.57002C10.4655 8.1951 8.33743 10.3231 5.71235 10.3231C3.08727 10.3231 0.959229 8.1951 0.959229 5.57002C0.959229 2.94494 3.08727 0.816895 5.71235 0.816895C8.33743 0.816895 10.4655 2.94494 10.4655 5.57002Z" stroke="black" stroke-opacity="0.12" stroke-width="0.63375"/>
</g>
<g opacity="0.2">
<path fill-rule="evenodd" clip-rule="evenodd" d="M25.9924 10.64C28.7924 10.64 31.0624 8.37009 31.0624 5.57C31.0624 2.76992 28.7924 0.5 25.9924 0.5C23.1922 0.5 20.9224 2.76992 20.9224 5.57C20.9224 8.37009 23.1922 10.64 25.9924 10.64Z" fill="white"/>
<path d="M30.7455 5.57002C30.7455 8.1951 28.6174 10.3231 25.9924 10.3231C23.3673 10.3231 21.2393 8.1951 21.2393 5.57002C21.2393 2.94494 23.3673 0.816895 25.9924 0.816895C28.6174 0.816895 30.7455 2.94494 30.7455 5.57002Z" stroke="black" stroke-opacity="0.12" stroke-width="0.63375"/>
</g>
<g opacity="0.2">
<path fill-rule="evenodd" clip-rule="evenodd" d="M46.2724 10.64C49.0724 10.64 51.3424 8.37009 51.3424 5.57C51.3424 2.76992 49.0724 0.5 46.2724 0.5C43.4722 0.5 41.2024 2.76992 41.2024 5.57C41.2024 8.37009 43.4722 10.64 46.2724 10.64Z" fill="white"/>
<path d="M51.0255 5.57002C51.0255 8.1951 48.8974 10.3231 46.2724 10.3231C43.6473 10.3231 41.5193 8.1951 41.5193 5.57002C41.5193 2.94494 43.6473 0.816895 46.2724 0.816895C48.8974 0.816895 51.0255 2.94494 51.0255 5.57002Z" stroke="black" stroke-opacity="0.12" stroke-width="0.63375"/>
</g>
</g>
<defs>
<clipPath id="clip0_25_288">
<rect width="51.9675" height="10.14" fill="white" transform="translate(0.355225 0.5)"/>
</clipPath>
</defs>
</svg>
