<svg width="404" height="480" viewBox="0 0 404 480" fill="none" xmlns="http://www.w3.org/2000/svg">
<g clip-path="url(#clip0_1_347)">
<g opacity="0.25" filter="url(#filter0_f_1_347)">
<path d="M200.204 366.614C259.468 366.614 307.511 309.927 307.511 240C307.511 170.073 259.468 113.386 200.204 113.386C140.94 113.386 92.8975 170.073 92.8975 240C92.8975 309.927 140.94 366.614 200.204 366.614Z" fill="#5F38FB"/>
</g>
<path d="M192.828 284.386V281.197H190.129V284.386H192.828Z" fill="#7654FF"/>
<path d="M233.091 215.872L230.952 216.807L230.161 219.335L229.369 216.807L227.231 215.872L229.369 214.937L230.161 212.41L230.952 214.937L233.091 215.872Z" fill="#7654FF"/>
<mask id="mask0_1_347" style="mask-type:luminance" maskUnits="userSpaceOnUse" x="233" y="288" width="37" height="37">
<path d="M233.217 288H269.614V324.399H233.217V288Z" fill="white"/>
</mask>
<g mask="url(#mask0_1_347)">
<mask id="mask1_1_347" style="mask-type:luminance" maskUnits="userSpaceOnUse" x="233" y="287" width="37" height="38">
<path d="M251.415 288C241.365 288 233.217 296.147 233.217 306.199C233.217 316.25 241.365 324.398 251.415 324.398C261.466 324.398 269.614 316.25 269.614 306.199C269.614 296.147 261.466 288 251.415 288Z" fill="white"/>
</mask>
<g mask="url(#mask1_1_347)">
<path d="M233.217 288H269.614V324.398H233.217V288Z" fill="#18ABA2"/>
</g>
</g>
<path d="M256.834 313.784C255.89 313.784 255.568 312.991 255.817 311.601L256.412 308.103C256.537 307.357 256.636 306.638 256.636 306.092C256.636 304.553 255.643 303.537 254.079 303.537C252.044 303.537 250.183 305.521 249.216 307.134L250.853 297.804C251.15 296.066 250.928 295.346 249.017 295.346C248.099 295.346 247.727 295.57 247.727 295.57C247.727 295.57 247.974 296.141 247.701 297.705L244.947 313.488C244.65 315.224 244.873 315.944 246.784 315.944C247.701 315.944 248.073 315.72 248.073 315.72C248.073 315.72 247.826 315.149 248.099 313.586C248.843 309.418 251.225 305.72 252.789 305.72C253.335 305.72 253.583 306.092 253.385 307.282L252.912 310.013C252.714 311.229 252.54 312.196 252.54 312.841C252.54 314.704 253.682 315.944 255.544 315.944C257.852 315.944 259.663 313.586 259.911 312.271C259.986 311.825 259.762 311.627 259.44 311.627C258.72 313.065 257.802 313.784 256.834 313.784Z" fill="black"/>
<path d="M254.503 299.941L253.854 297.842L242.935 301.218L243.582 303.316L254.503 299.941Z" fill="black"/>
<path d="M283.234 300.208C284.402 300.208 285.397 300.502 286.22 301.09C287.042 301.679 287.663 302.507 288.081 303.574C288.5 304.641 288.709 305.893 288.709 307.329V307.601C288.709 308.978 288.496 310.208 288.07 311.294C287.647 312.378 287.027 313.226 286.209 313.84C285.395 314.455 284.412 314.762 283.262 314.762C281.885 314.762 280.765 314.274 279.902 313.297V319.898H275.988V300.468H279.62L279.761 301.814C280.643 300.744 281.8 300.208 283.234 300.208ZM284.806 307.329C284.806 306.119 284.599 305.157 284.184 304.445C283.768 303.732 283.117 303.376 282.227 303.376C281.11 303.376 280.335 303.804 279.902 304.66V310.271C280.351 311.164 281.133 311.611 282.25 311.611C283.139 311.611 283.788 311.244 284.196 310.508C284.603 309.773 284.806 308.804 284.806 307.601V307.329Z" fill="#18ABA2"/>
<path d="M291.134 314.502V294.58H295.066V314.502H291.134Z" fill="#18ABA2"/>
<path d="M309.489 311.04C309.489 311.836 309.536 312.481 309.631 312.974C309.724 313.465 309.868 313.901 310.06 314.281V314.502H306.129C305.955 314.166 305.83 313.748 305.75 313.246C304.859 314.257 303.689 314.762 302.238 314.762C301.355 314.762 300.549 314.581 299.822 314.219C299.098 313.854 298.524 313.352 298.103 312.714C297.684 312.074 297.475 311.351 297.475 310.548C297.475 309.07 298.024 307.932 299.121 307.131C300.221 306.328 301.839 305.927 303.974 305.927H305.569V305.135C305.569 304.49 305.405 303.989 305.077 303.63C304.749 303.268 304.257 303.087 303.601 303.087C303.004 303.087 302.539 303.228 302.204 303.511C301.871 303.791 301.706 304.19 301.706 304.71H297.786C297.786 303.87 298.035 303.108 298.533 302.425C299.031 301.744 299.735 301.204 300.648 300.808C301.56 300.409 302.612 300.208 303.805 300.208C304.913 300.208 305.895 300.395 306.752 300.768C307.607 301.138 308.276 301.696 308.76 302.442C309.246 303.186 309.489 304.093 309.489 305.163V311.04ZM303.12 311.792C303.689 311.792 304.191 311.671 304.625 311.425C305.057 311.176 305.373 310.874 305.569 310.52V308.172H304.082C303.172 308.172 302.495 308.37 302.051 308.766C301.606 309.159 301.384 309.67 301.384 310.299C301.384 310.74 301.539 311.101 301.853 311.379C302.17 311.655 302.591 311.792 303.12 311.792Z" fill="#18ABA2"/>
<path d="M320.019 300.208C321.425 300.208 322.514 300.631 323.283 301.475C324.052 302.316 324.437 303.692 324.437 305.604V314.502H320.523V305.593C320.523 304.764 320.344 304.187 319.991 303.862C319.636 303.538 319.087 303.376 318.345 303.376C317.832 303.376 317.386 303.483 317.01 303.698C316.637 303.913 316.333 304.221 316.099 304.62V314.502H312.185V300.468H315.856L315.98 302.092C316.474 301.478 317.062 301.01 317.745 300.689C318.427 300.369 319.185 300.208 320.019 300.208Z" fill="#18ABA2"/>
<path d="M338.952 309.586C338.952 310.582 338.692 311.474 338.171 312.262C337.654 313.046 336.953 313.659 336.067 314.1C335.181 314.541 334.198 314.762 333.12 314.762C331.709 314.762 330.516 314.455 329.54 313.84C328.563 313.226 327.829 312.383 327.34 311.311C326.849 310.241 326.604 309.021 326.604 307.652V307.318C326.604 305.949 326.849 304.73 327.34 303.658C327.829 302.588 328.559 301.745 329.529 301.13C330.501 300.516 331.689 300.208 333.092 300.208C334.242 300.208 335.26 300.431 336.147 300.875C337.032 301.321 337.72 301.961 338.211 302.799C338.705 303.633 338.952 304.614 338.952 305.746H335.281C335.273 305.055 335.069 304.487 334.67 304.037C334.274 303.585 333.721 303.359 333.013 303.359C332.063 303.359 331.409 303.718 331.056 304.433C330.701 305.146 330.524 306.108 330.524 307.318V307.652C330.524 308.889 330.699 309.858 331.05 310.559C331.401 311.261 332.064 311.611 333.041 311.611C333.716 311.611 334.254 311.43 334.659 311.068C335.066 310.703 335.273 310.208 335.281 309.586H338.952Z" fill="#18ABA2"/>
<path d="M346.27 308.976L344.957 310.288V314.502H341.043V294.569H344.957V305.474L345.608 304.631L349.12 300.468H353.815L348.787 306.294L354.217 314.502H349.731L346.27 308.976Z" fill="#18ABA2"/>
</g>
<defs>
<filter id="filter0_f_1_347" x="-20.4884" y="-8.39233e-05" width="441.385" height="480" filterUnits="userSpaceOnUse" color-interpolation-filters="sRGB">
<feFlood flood-opacity="0" result="BackgroundImageFix"/>
<feBlend mode="normal" in="SourceGraphic" in2="BackgroundImageFix" result="shape"/>
<feGaussianBlur stdDeviation="56.6929" result="effect1_foregroundBlur_1_347"/>
</filter>
<clipPath id="clip0_1_347">
<rect width="403" height="480" fill="white" transform="translate(0.783203)"/>
</clipPath>
</defs>
</svg>
