<svg width="301" height="100" viewBox="0 0 301 100" fill="none" xmlns="http://www.w3.org/2000/svg">
<g clip-path="url(#clip0_1_322)">
<g filter="url(#filter0_d_1_322)">
<path d="M142.565 266.697C211.326 266.697 267.067 210.956 267.067 142.195C267.067 73.4351 211.326 17.6938 142.565 17.6938C73.8052 17.6938 18.064 73.4351 18.064 142.195C18.064 210.956 73.8052 266.697 142.565 266.697Z" fill="url(#paint0_linear_1_322)"/>
<path d="M266.224 142.195C266.224 210.49 210.86 265.854 142.565 265.854C74.2704 265.854 18.9065 210.49 18.9065 142.195C18.9065 73.9005 74.2704 18.5366 142.565 18.5366C210.86 18.5366 266.224 73.9005 266.224 142.195Z" stroke="url(#paint1_linear_1_322)" stroke-width="1.6853"/>
</g>
</g>
<defs>
<filter id="filter0_d_1_322" x="1.21097" y="0.840856" width="299.562" height="299.562" filterUnits="userSpaceOnUse" color-interpolation-filters="sRGB">
<feFlood flood-opacity="0" result="BackgroundImageFix"/>
<feColorMatrix in="SourceAlpha" type="matrix" values="0 0 0 0 0 0 0 0 0 0 0 0 0 0 0 0 0 0 127 0" result="hardAlpha"/>
<feOffset dx="8.4265" dy="8.4265"/>
<feGaussianBlur stdDeviation="12.6397"/>
<feComposite in2="hardAlpha" operator="out"/>
<feColorMatrix type="matrix" values="0 0 0 0 0.00392157 0 0 0 0 0.054902 0 0 0 0 0.243137 0 0 0 0.3 0"/>
<feBlend mode="normal" in2="BackgroundImageFix" result="effect1_dropShadow_1_322"/>
<feBlend mode="normal" in="SourceGraphic" in2="effect1_dropShadow_1_322" result="shape"/>
</filter>
<linearGradient id="paint0_linear_1_322" x1="22.881" y1="17.6938" x2="267.701" y2="272.652" gradientUnits="userSpaceOnUse">
<stop offset="0.182401" stop-color="#5F38FB" stop-opacity="0.66"/>
<stop offset="0.889919" stop-color="#5F38FB" stop-opacity="0.3"/>
</linearGradient>
<linearGradient id="paint1_linear_1_322" x1="-9.20792" y1="-24.597" x2="260.56" y2="276.911" gradientUnits="userSpaceOnUse">
<stop offset="0.321094" stop-color="#977DFC"/>
<stop offset="0.664868" stop-color="#5F38FB" stop-opacity="0"/>
<stop offset="0.861396" stop-color="#5F38FB"/>
</linearGradient>
<clipPath id="clip0_1_322">
<rect width="299.983" height="98.59" fill="white" transform="translate(0.789551 0.839844)"/>
</clipPath>
</defs>
</svg>
