<svg width="149" height="200" viewBox="0 0 149 200" fill="none" xmlns="http://www.w3.org/2000/svg">
<g clip-path="url(#clip0_1_337)">
<g filter="url(#filter0_d_1_337)">
<path d="M53.2546 16.4979L-34.0404 44.8477C-49.5468 49.8835 -58.0349 66.5362 -52.999 82.0426L-26.038 165.062C-21.0022 180.568 -4.34944 189.056 11.157 184.02L98.452 155.67C113.958 150.635 122.446 133.982 117.411 118.475L90.4496 35.4566C85.4138 19.9502 68.761 11.4621 53.2546 16.4979Z" fill="#18ABA2"/>
<path d="M53.4826 17.2L-33.8124 45.5497C-48.9311 50.4597 -57.207 66.6961 -52.2971 81.8148L-25.336 164.834C-20.4261 179.952 -4.18968 188.228 10.9291 183.318L98.2241 154.969C113.343 150.059 121.619 133.822 116.709 118.704L89.7477 35.6847C84.8378 20.566 68.6014 12.2901 53.4826 17.2Z" stroke="url(#paint0_linear_1_337)" stroke-width="1.47601"/>
</g>
</g>
<defs>
<filter id="filter0_d_1_337" x="-69.2106" y="0.28624" width="217.593" height="214.706" filterUnits="userSpaceOnUse" color-interpolation-filters="sRGB">
<feFlood flood-opacity="0" result="BackgroundImageFix"/>
<feColorMatrix in="SourceAlpha" type="matrix" values="0 0 0 0 0 0 0 0 0 0 0 0 0 0 0 0 0 0 127 0" result="hardAlpha"/>
<feOffset dx="7.38007" dy="7.38007"/>
<feGaussianBlur stdDeviation="11.0701"/>
<feComposite in2="hardAlpha" operator="out"/>
<feColorMatrix type="matrix" values="0 0 0 0 0.00392157 0 0 0 0 0.054902 0 0 0 0 0.243137 0 0 0 0.3 0"/>
<feBlend mode="normal" in2="BackgroundImageFix" result="effect1_dropShadow_1_337"/>
<feBlend mode="normal" in="SourceGraphic" in2="effect1_dropShadow_1_337" result="shape"/>
</filter>
<linearGradient id="paint0_linear_1_337" x1="-85.6055" y1="35.7415" x2="120.795" y2="159.998" gradientUnits="userSpaceOnUse">
<stop offset="0.321094" stop-color="#977DFC"/>
<stop offset="0.664868" stop-color="#5F38FB" stop-opacity="0"/>
<stop offset="0.861396" stop-color="#5F38FB"/>
</linearGradient>
<clipPath id="clip0_1_337">
<rect width="148.339" height="200" fill="white" transform="translate(0.613403)"/>
</clipPath>
</defs>
</svg>
