<svg width="29" height="29" viewBox="0 0 29 29" fill="none" xmlns="http://www.w3.org/2000/svg">
<path d="M22.1063 1.11035H7.45619C3.95525 1.11035 1.11719 3.94842 1.11719 7.44935V22.0995C1.11719 25.6004 3.95525 28.4385 7.45619 28.4385H22.1063C25.6072 28.4385 28.4453 25.6004 28.4453 22.0995V7.44935C28.4453 3.94842 25.6072 1.11035 22.1063 1.11035Z" fill="url(#paint0_linear_1_201)" stroke="#D9D9D9"/>
<path fill-rule="evenodd" clip-rule="evenodd" d="M5.60829 20.3449H4.96547V11.755H5.60829V20.3449ZM5.27773 9.64934C5.00665 9.64934 4.78247 9.43431 4.78247 9.16323C4.78247 8.88414 5.0055 8.66797 5.27773 8.66797C5.55681 8.66797 5.77871 8.883 5.77871 9.16323C5.77871 9.43431 5.55681 9.64934 5.27773 9.64934Z" fill="url(#paint1_linear_1_201)"/>
<path fill-rule="evenodd" clip-rule="evenodd" d="M11.8515 20.512C8.70831 20.512 6.72266 18.2232 6.72266 14.5849C6.72266 10.9648 8.71747 8.66699 11.8515 8.66699C14.9855 8.66699 16.9792 10.9649 16.9792 14.5849C16.9792 18.2234 14.9935 20.512 11.8515 20.512ZM11.8515 9.25821C9.11556 9.25821 7.36895 11.3239 7.36895 14.5848C7.36895 17.8481 9.12359 19.9218 11.8515 19.9218C14.5874 19.9218 16.334 17.8481 16.334 14.5848C16.334 11.3228 14.5874 9.25821 11.8515 9.25821Z" fill="url(#paint2_linear_1_201)"/>
<path fill-rule="evenodd" clip-rule="evenodd" d="M21.558 20.512C19.1984 20.512 17.5067 19.1795 17.4106 17.2739H18.0409C18.137 18.8364 19.6045 19.9298 21.6061 19.9298C23.5596 19.9298 24.9231 18.8204 24.9231 17.322C24.9231 16.1164 24.1098 15.4232 22.1802 14.9371L20.8168 14.602C18.6882 14.0587 17.7217 13.1974 17.7217 11.7551C17.7217 9.96042 19.3973 8.66797 21.4951 8.66797C23.6638 8.66797 25.2833 9.94445 25.3554 11.635H24.7252C24.6371 10.2556 23.2898 9.25017 21.4791 9.25017C19.7474 9.25017 18.3679 10.2876 18.3679 11.739C18.3679 12.8885 19.2131 13.5497 21.0627 14.0117L22.3471 14.3389C24.5718 14.889 25.5692 15.7434 25.5692 17.2738C25.5692 19.1793 23.9667 20.5119 21.5579 20.5119L21.558 20.512Z" fill="url(#paint3_linear_1_201)"/>
<defs>
<linearGradient id="paint0_linear_1_201" x1="1367.52" y1="1367.52" x2="1367.52" y2="2733.92" gradientUnits="userSpaceOnUse">
<stop stop-color="white"/>
<stop offset="1" stop-color="#E9E5E5"/>
</linearGradient>
<linearGradient id="paint1_linear_1_201" x1="54.5943" y1="8.66797" x2="54.5943" y2="1025.17" gradientUnits="userSpaceOnUse">
<stop/>
<stop offset="1" stop-color="#01ADE5"/>
</linearGradient>
<linearGradient id="paint2_linear_1_201" x1="150.426" y1="121.606" x2="859.059" y2="799.179" gradientUnits="userSpaceOnUse">
<stop/>
<stop offset="0.37448" stop-color="#00A3F5"/>
<stop offset="0.71708" stop-color="#18B5B6"/>
<stop offset="1" stop-color="#80DF43"/>
</linearGradient>
<linearGradient id="paint3_linear_1_201" x1="123.61" y1="45.0624" x2="992.025" y2="757.565" gradientUnits="userSpaceOnUse">
<stop/>
<stop offset="0.4988" stop-color="#9BEC23"/>
<stop offset="1" stop-color="#D9EF35"/>
</linearGradient>
</defs>
</svg>
