<svg width="35" height="35" viewBox="0 0 35 35" fill="none" xmlns="http://www.w3.org/2000/svg">
<g clip-path="url(#clip0_1_210)">
<path d="M16.5813 20.7504C16.5813 23.6104 15.0913 25.4104 12.7113 25.4104C10.3313 25.4104 8.84125 23.6004 8.84125 20.7504C8.84125 17.8804 10.3313 16.0804 12.7113 16.0804C15.0913 16.0804 16.5813 17.8804 16.5813 20.7504ZM19.9013 10.6604L18.8612 10.7304C18.2712 10.7704 18.0112 10.9804 18.0112 11.3604C18.0112 11.7604 18.3413 11.9804 18.8013 11.9804C19.4312 11.9804 19.9013 11.5704 19.9013 11.0204V10.6604ZM34.7812 17.1104C34.7812 26.6004 27.2712 34.1104 17.7812 34.1104C8.29125 34.1104 0.78125 26.6004 0.78125 17.1104C0.78125 7.62035 8.29125 0.110352 17.7812 0.110352C27.2712 0.110352 34.7812 7.62035 34.7812 17.1104ZM21.7213 10.4504C21.7213 11.8304 22.4813 12.6704 23.7213 12.6704C24.7712 12.6704 25.4312 12.0804 25.5413 11.2404H24.7213C24.6112 11.7004 24.2513 11.9504 23.7213 11.9504C23.0212 11.9504 22.5912 11.3804 22.5912 10.4504C22.5912 9.53035 23.0212 8.98035 23.7213 8.98035C24.2812 8.98035 24.6313 9.30035 24.7213 9.71035H25.5413C25.4312 8.89035 24.7913 8.27035 23.7213 8.27035C22.4813 8.26035 21.7213 9.10035 21.7213 10.4504ZM10.2913 8.35035V12.5904H11.1313V9.99035C11.1313 9.44035 11.5212 9.00035 12.0312 9.00035C12.5312 9.00035 12.8512 9.30035 12.8512 9.78035V12.5904H13.6713V9.91035C13.6713 9.40035 14.0212 9.00035 14.5712 9.00035C15.1213 9.00035 15.3912 9.28035 15.3912 9.87035V12.5904H16.2312V9.66035C16.2312 8.78035 15.7312 8.26035 14.8713 8.26035C14.2812 8.26035 13.7913 8.56035 13.5813 9.02035H13.5112C13.3212 8.56035 12.9213 8.26035 12.3413 8.26035C11.7713 8.26035 11.3413 8.54035 11.1613 9.02035H11.1012V8.34035L10.2913 8.35035ZM18.0713 20.7504C18.0713 17.0604 16.0113 14.7404 12.7113 14.7404C9.41125 14.7404 7.35125 17.0604 7.35125 20.7504C7.35125 24.4404 9.41125 26.7504 12.7113 26.7504C16.0113 26.7504 18.0713 24.4304 18.0713 20.7504ZM18.5912 12.6604C19.1512 12.6604 19.6112 12.4204 19.8713 11.9904H19.9412V12.5904H20.7512V9.69035C20.7512 8.80035 20.1512 8.27035 19.0812 8.27035C18.1112 8.27035 17.4312 8.74035 17.3412 9.45035H18.1513C18.2413 9.14035 18.5713 8.97035 19.0413 8.97035C19.6112 8.97035 19.9112 9.23035 19.9112 9.70035V10.0704L18.7612 10.1404C17.7512 10.2004 17.1812 10.6404 17.1812 11.4104C17.1712 12.1704 17.7712 12.6604 18.5912 12.6604ZM27.7612 23.2504C27.7612 21.6004 26.8013 20.6404 24.3813 20.1104L23.0912 19.8304C21.5012 19.4804 20.8813 18.8504 20.8813 17.9404C20.8813 16.7604 22.0012 16.0504 23.4513 16.0504C24.9713 16.0504 25.9713 16.8304 26.1012 18.1104H27.5513C27.4813 16.1404 25.8112 14.7504 23.4912 14.7504C21.0812 14.7504 19.3913 16.1004 19.3913 18.0104C19.3913 19.6604 20.4013 20.7204 22.7313 21.2304L24.0212 21.5104C25.6313 21.8604 26.2812 22.5104 26.2812 23.4804C26.2812 24.6204 25.1313 25.4504 23.5613 25.4504C21.8913 25.4504 20.7313 24.6904 20.5613 23.4404H19.1112C19.2512 25.4504 20.9412 26.7504 23.4813 26.7504C26.0713 26.7504 27.7612 25.4004 27.7612 23.2504Z" fill="white"/>
</g>
<defs>
<clipPath id="clip0_1_210">
<rect width="34" height="34" fill="white" transform="translate(0.78125 0.110352)"/>
</clipPath>
</defs>
</svg>
