<svg width="239" height="72" viewBox="0 0 239 72" fill="none" xmlns="http://www.w3.org/2000/svg">
<mask id="mask0_25_92" style="mask-type:luminance" maskUnits="userSpaceOnUse" x="0" y="0" width="73" height="72">
<path d="M0.78125 0H72.3726V71.5941H0.78125V0Z" fill="white"/>
</mask>
<g mask="url(#mask0_25_92)">
<mask id="mask1_25_92" style="mask-type:luminance" maskUnits="userSpaceOnUse" x="0" y="-1" width="73" height="73">
<path d="M36.5755 -0.000732422C16.8079 -0.000732422 0.78125 16.0259 0.78125 35.7963C0.78125 55.5668 16.8079 71.5934 36.5755 71.5934C56.346 71.5934 72.3726 55.5668 72.3726 35.7963C72.3726 16.0259 56.346 -0.000732422 36.5755 -0.000732422Z" fill="white"/>
</mask>
<g mask="url(#mask1_25_92)">
<path d="M0.78125 -0.000732422H72.3726V71.5934H0.78125V-0.000732422Z" fill="#18ABA2"/>
</g>
</g>
<path d="M47.2342 50.7172C45.379 50.7172 44.7448 49.1568 45.2343 46.4227L46.4053 39.5414C46.6501 38.0756 46.8448 36.6598 46.8448 35.5862C46.8448 32.56 44.8922 30.5601 41.816 30.5601C37.8135 30.5601 34.1531 34.4625 32.2506 37.6361L35.4715 19.2842C36.0556 15.8658 35.6189 14.4501 31.8584 14.4501C30.0533 14.4501 29.3217 14.8895 29.3217 14.8895C29.3217 14.8895 29.8085 16.0132 29.2717 19.0895L23.8534 50.1331C23.2693 53.5487 23.7088 54.9644 27.4665 54.9644C29.2717 54.9644 30.0032 54.525 30.0032 54.525C30.0032 54.525 29.5164 53.4013 30.0533 50.3278C31.5163 42.1281 36.203 34.8547 39.2793 34.8547C40.3529 34.8547 40.8397 35.5862 40.4503 37.9282L39.5213 43.2991C39.1319 45.6911 38.7897 47.5936 38.7897 48.862C38.7897 52.5251 41.0344 54.9644 44.6975 54.9644C49.2368 54.9644 52.7998 50.3278 53.2866 47.7411C53.434 46.8621 52.9945 46.4727 52.3604 46.4727C50.9446 49.3014 49.1395 50.7172 47.2342 50.7172Z" fill="black"/>
<path d="M42.651 23.4868L41.3743 19.3591L19.8961 25.9984L21.17 30.1261L42.651 23.4868Z" fill="black"/>
<path d="M99.1622 24.0125C101.46 24.0125 103.418 24.591 105.037 25.7481C106.653 26.9051 107.874 28.5351 108.697 30.6323C109.52 32.7322 109.932 35.1938 109.932 38.0198V38.5538C109.932 41.2629 109.512 43.6828 108.675 45.8189C107.843 47.9495 106.622 49.6183 105.014 50.8255C103.412 52.0354 101.479 52.639 99.2179 52.639C96.5087 52.639 94.3058 51.6794 92.6092 49.7574V62.7411H84.9102V24.5242H92.0529L92.331 27.1722C94.0666 25.0666 96.3419 24.0125 99.1622 24.0125ZM102.255 38.0198C102.255 35.6388 101.846 33.7475 101.031 32.3456C100.214 30.9438 98.9314 30.2429 97.1818 30.2429C94.9845 30.2429 93.4603 31.0856 92.6092 32.7684V43.8051C93.4909 45.563 95.029 46.4419 97.2263 46.4419C98.9759 46.4419 100.253 45.7188 101.054 44.2724C101.855 42.8261 102.255 40.9208 102.255 38.5538V38.0198Z" fill="#18ABA2"/>
<path d="M114.702 52.1271V12.9423H122.435V52.1271H114.702Z" fill="#18ABA2"/>
<path d="M150.805 45.3182C150.805 46.8842 150.897 48.1525 151.083 49.1232C151.267 50.0884 151.55 50.9451 151.929 51.6933V52.1272H144.196C143.854 51.468 143.607 50.6447 143.451 49.6573C141.699 51.646 139.396 52.639 136.542 52.639C134.806 52.639 133.221 52.2829 131.791 51.5709C130.367 50.8533 129.238 49.8659 128.409 48.6115C127.586 47.3515 127.174 45.9302 127.174 44.3503C127.174 41.4437 128.253 39.2046 130.412 37.6304C132.575 36.0505 135.757 35.2606 139.957 35.2606H143.095V33.703C143.095 32.4346 142.772 31.45 142.127 30.7435C141.482 30.0315 140.514 29.6755 139.223 29.6755C138.049 29.6755 137.134 29.9536 136.475 30.5099C135.821 31.0606 135.496 31.845 135.496 32.8685H127.786C127.786 31.2164 128.275 29.7172 129.254 28.3737C130.234 27.0331 131.619 25.9706 133.415 25.1918C135.21 24.4074 137.279 24.0125 139.624 24.0125C141.804 24.0125 143.735 24.3796 145.42 25.1139C147.103 25.8426 148.419 26.9385 149.37 28.4071C150.327 29.8702 150.805 31.6531 150.805 33.7586V45.3182ZM138.277 46.798C139.396 46.798 140.383 46.5588 141.237 46.0748C142.088 45.5853 142.708 44.9928 143.095 44.2947V39.6775H140.169C138.38 39.6775 137.048 40.0669 136.175 40.8457C135.299 41.6189 134.862 42.623 134.862 43.8608C134.862 44.7286 135.168 45.4378 135.785 45.9858C136.408 46.5282 137.237 46.798 138.277 46.798Z" fill="#18ABA2"/>
<path d="M171.517 24.0125C174.282 24.0125 176.423 24.8441 177.936 26.5046C179.449 28.1596 180.206 30.8659 180.206 34.6264V52.1272H172.507V34.6042C172.507 32.9742 172.157 31.8394 171.461 31.1997C170.763 30.5627 169.684 30.2429 168.224 30.2429C167.214 30.2429 166.338 30.4543 165.598 30.877C164.864 31.2998 164.266 31.9062 163.807 32.6905V52.1272H156.108V24.5242H163.328L163.573 27.7173C164.544 26.5102 165.701 25.5895 167.044 24.9581C168.385 24.3295 169.876 24.0125 171.517 24.0125Z" fill="#18ABA2"/>
<path d="M208.757 42.4589C208.757 44.4171 208.245 46.1721 207.222 47.7214C206.204 49.2651 204.824 50.4695 203.083 51.3373C201.339 52.2051 199.406 52.639 197.286 52.639C194.511 52.639 192.163 52.0354 190.244 50.8255C188.322 49.6183 186.878 47.9606 185.916 45.8523C184.951 43.7467 184.47 41.3463 184.47 38.6539V37.9975C184.47 35.3051 184.951 32.9075 185.916 30.7992C186.878 28.6936 188.314 27.0359 190.222 25.8259C192.135 24.6188 194.472 24.0125 197.231 24.0125C199.492 24.0125 201.495 24.4519 203.239 25.3253C204.98 26.2014 206.334 27.4614 207.3 29.108C208.27 30.7491 208.757 32.6794 208.757 34.9045H201.536C201.52 33.5472 201.119 32.4291 200.335 31.5446C199.556 30.6545 198.469 30.2095 197.075 30.2095C195.206 30.2095 193.921 30.916 193.226 32.3234C192.527 33.7252 192.18 35.6166 192.18 37.9975V38.6539C192.18 41.0877 192.525 42.993 193.214 44.3725C193.904 45.7521 195.209 46.4419 197.131 46.4419C198.457 46.4419 199.517 46.0859 200.313 45.3739C201.114 44.6563 201.52 43.6828 201.536 42.4589H208.757Z" fill="#18ABA2"/>
<path d="M223.15 41.2572L220.569 43.8383V52.127H212.87V12.9199H220.569V34.3703L221.849 32.7126L228.758 24.5241H237.992L228.101 35.9836L238.782 52.127H229.959L223.15 41.2572Z" fill="#18ABA2"/>
</svg>
