<svg width="25" height="19" viewBox="0 0 25 19" fill="none" xmlns="http://www.w3.org/2000/svg">
<path d="M21.0988 1.79977C19.5425 1.08557 17.9004 0.575834 16.2133 0.283268C16.198 0.280694 16.1823 0.282918 16.1683 0.289633C16.1543 0.296348 16.1428 0.307225 16.1353 0.320768C15.9238 0.695768 15.6898 1.18627 15.5263 1.57027C13.7077 1.29428 11.8578 1.29428 10.0393 1.57027C9.85688 1.1425 9.65055 0.725338 9.42126 0.320768C9.41356 0.307373 9.40199 0.296621 9.38807 0.289928C9.37415 0.283234 9.35853 0.280913 9.34326 0.283268C7.65576 0.574268 6.01326 1.08427 4.45776 1.79977C4.44445 1.80485 4.43331 1.81439 4.42626 1.82677C1.31526 6.47527 0.461759 11.0098 0.880259 15.4873C0.881759 15.5083 0.895259 15.5293 0.911759 15.5428C2.72335 16.8847 4.74965 17.9093 6.90426 18.5728C6.91947 18.5776 6.93582 18.5774 6.95092 18.5723C6.96603 18.5671 6.97911 18.5573 6.98826 18.5443C7.45026 17.9143 7.86126 17.2498 8.21526 16.5508C8.22264 16.5364 8.22516 16.52 8.22246 16.504C8.21976 16.4881 8.21197 16.4734 8.20026 16.4623C8.19251 16.4549 8.18331 16.4493 8.17326 16.4458C7.527 16.1974 6.9011 15.899 6.30126 15.5533C6.2845 15.5438 6.27204 15.5282 6.26646 15.5098C6.26087 15.4913 6.26259 15.4715 6.27126 15.4543C6.27636 15.4431 6.28408 15.4333 6.29376 15.4258C6.41976 15.3313 6.54576 15.2323 6.66576 15.1333C6.67636 15.1247 6.68908 15.1193 6.70255 15.1174C6.71603 15.1156 6.72975 15.1174 6.74226 15.1228C10.6708 16.9168 14.9233 16.9168 18.8038 15.1228C18.8167 15.1172 18.831 15.1152 18.845 15.117C18.859 15.1189 18.8722 15.1245 18.8833 15.1333C19.0033 15.2323 19.1293 15.3313 19.2553 15.4258C19.2655 15.4332 19.2737 15.4431 19.2791 15.4545C19.2846 15.4659 19.2871 15.4785 19.2865 15.4911C19.2859 15.5038 19.2822 15.5161 19.2757 15.5269C19.2692 15.5377 19.2601 15.5468 19.2493 15.5533C18.6508 15.9022 18.0241 16.2002 17.3758 16.4443C17.3654 16.448 17.356 16.454 17.3482 16.4618C17.3405 16.4695 17.3345 16.4789 17.3308 16.4893C17.3273 16.4993 17.3259 16.5099 17.3267 16.5205C17.3274 16.5311 17.3304 16.5414 17.3353 16.5508C17.6953 17.2483 18.1078 17.9143 18.5608 18.5443C18.5699 18.5573 18.583 18.5671 18.5981 18.5723C18.6132 18.5774 18.6295 18.5776 18.6448 18.5728C20.803 17.9113 22.8326 16.8866 24.6463 15.5428C24.6553 15.5365 24.6629 15.5282 24.6683 15.5186C24.6738 15.509 24.677 15.4983 24.6778 15.4873C25.1788 10.3108 23.8393 5.81377 21.1288 1.82827C21.126 1.82169 21.1219 1.81575 21.1168 1.81084C21.1116 1.80593 21.1055 1.80216 21.0988 1.79977ZM8.80176 12.7603C7.61826 12.7603 6.64476 11.6743 6.64476 10.3423C6.64476 9.00877 7.60026 7.92277 8.80176 7.92277C10.0123 7.92277 10.9768 9.01777 10.9588 10.3423C10.9588 11.6743 10.0033 12.7603 8.80176 12.7603ZM16.7758 12.7603C15.5938 12.7603 14.6188 11.6743 14.6188 10.3423C14.6188 9.00877 15.5743 7.92277 16.7758 7.92277C17.9863 7.92277 18.9523 9.01777 18.9328 10.3423C18.9328 11.6743 17.9863 12.7603 16.7758 12.7603Z" fill="white"/>
</svg>
