<svg width="20" height="19" viewBox="0 0 20 19" fill="none" xmlns="http://www.w3.org/2000/svg">
<path d="M18.4062 0.0644531H1.15625C0.741406 0.0644531 0.40625 0.399609 0.40625 0.814453V18.0645C0.40625 18.4793 0.741406 18.8145 1.15625 18.8145H18.4062C18.8211 18.8145 19.1562 18.4793 19.1562 18.0645V0.814453C19.1562 0.399609 18.8211 0.0644531 18.4062 0.0644531ZM5.96797 16.0418H3.18594V7.09336H5.96797V16.0418ZM4.57812 5.86992C4.2592 5.86992 3.94744 5.77535 3.68227 5.59817C3.41709 5.42098 3.21042 5.16914 3.08837 4.8745C2.96632 4.57985 2.93439 4.25563 2.99661 3.94284C3.05883 3.63004 3.2124 3.34272 3.43792 3.11721C3.66343 2.8917 3.95075 2.73812 4.26354 2.67591C4.57634 2.61369 4.90056 2.64562 5.1952 2.76767C5.48985 2.88971 5.74169 3.09639 5.91887 3.36157C6.09605 3.62674 6.19062 3.9385 6.19062 4.25742C6.18828 5.14805 5.46641 5.86992 4.57812 5.86992ZM16.3836 16.0418H13.6039V11.6895C13.6039 10.6512 13.5852 9.31758 12.1578 9.31758C10.7117 9.31758 10.4891 10.4473 10.4891 11.6145V16.0418H7.71172V7.09336H10.3789V8.3168H10.4164C10.7867 7.61367 11.6938 6.8707 13.0484 6.8707C15.8656 6.8707 16.3836 8.72461 16.3836 11.134V16.0418Z" fill="white"/>
</svg>
