<svg width="15" height="20" viewBox="0 0 15 20" fill="none" xmlns="http://www.w3.org/2000/svg">
<path d="M13.7765 3.63529C14.2282 4.08691 14.4917 4.68909 14.4917 5.3289V16.9583C14.4917 18.3132 13.4003 19.367 12.083 19.367H2.44824C1.09335 19.367 0.0395508 18.3132 0.0395508 16.9583V2.50622C0.0395508 1.18897 1.09335 0.0975342 2.44824 0.0975342H9.26029C9.90011 0.0975342 10.5023 0.360984 10.9539 0.812613L13.7765 3.63529ZM12.083 17.5605C12.384 17.5605 12.6851 17.297 12.6475 16.9583V6.11925H9.67429C8.99685 6.11925 8.46995 5.59234 8.46995 4.9149V1.94169H2.44824C2.10951 1.94169 1.84606 2.20513 1.84606 2.54386V16.996C1.84606 17.297 2.10951 17.5605 2.44824 17.5605H12.083Z" fill="url(#paint0_linear_1_94)"/>
<defs>
<linearGradient id="paint0_linear_1_94" x1="2.18129" y1="21.6996" x2="20.1343" y2="13.8519" gradientUnits="userSpaceOnUse">
<stop stop-color="#18ABA2"/>
<stop offset="0.640625" stop-color="#98677A"/>
<stop offset="1" stop-color="#B95837"/>
</linearGradient>
</defs>
</svg>
