<svg width="25" height="25" viewBox="0 0 25 25" fill="none" xmlns="http://www.w3.org/2000/svg">
<path d="M24.7812 12.4395C24.7812 15.6221 23.517 18.6743 21.2665 20.9247C19.0161 23.1752 15.9638 24.4395 12.7812 24.4395C9.59865 24.4395 6.54641 23.1752 4.29597 20.9247C2.04553 18.6743 0.78125 15.6221 0.78125 12.4395C0.78125 9.25686 2.04553 6.20461 4.29597 3.95417C6.54641 1.70374 9.59865 0.439453 12.7812 0.439453C15.9638 0.439453 19.0161 1.70374 21.2665 3.95417C23.517 6.20461 24.7812 9.25686 24.7812 12.4395ZM13.2118 9.29845C12.0447 9.78445 9.71075 10.7895 6.21275 12.3135C5.64575 12.5385 5.34725 12.7605 5.32025 12.9765C5.27525 13.341 5.73275 13.485 6.35525 13.6815L6.61775 13.764C7.22975 13.9635 8.05475 14.196 8.48225 14.205C8.87225 14.214 9.30575 14.055 9.78425 13.725C13.0527 11.5185 14.7403 10.404 14.8453 10.38C14.9203 10.362 15.0252 10.341 15.0942 10.404C15.1648 10.4655 15.1573 10.584 15.1498 10.6155C15.1048 10.809 13.3092 12.477 12.3807 13.341C12.0912 13.611 11.8857 13.8015 11.8438 13.845C11.7513 13.9395 11.6573 14.0325 11.5617 14.124C10.9917 14.673 10.5658 15.084 11.5843 15.756C12.0747 16.08 12.4677 16.3455 12.8593 16.6125C13.2852 16.9035 13.7113 17.193 14.2633 17.556C14.4028 17.646 14.5378 17.7435 14.6683 17.8365C15.1648 18.1905 15.6132 18.5085 16.1637 18.4575C16.4847 18.4275 16.8162 18.1275 16.9842 17.2275C17.3818 15.102 18.1632 10.4985 18.3433 8.60095C18.3542 8.44322 18.3477 8.28475 18.3237 8.12845C18.3096 8.00233 18.2486 7.88614 18.1528 7.80295C18.0163 7.70874 17.8536 7.65993 17.6877 7.66345C17.2377 7.67095 16.5432 7.91245 13.2118 9.29845Z" fill="white"/>
</svg>
