<svg width="22" height="22" viewBox="0 0 22 22" fill="none" xmlns="http://www.w3.org/2000/svg">
<path d="M12.4688 12.2832C12.4688 12.507 12.5576 12.7216 12.7159 12.8798C12.8741 13.0381 13.0887 13.127 13.3125 13.127C13.5363 13.127 13.7509 13.0381 13.9091 12.8798C14.0674 12.7216 14.1562 12.507 14.1562 12.2832C14.1562 12.0594 14.0674 11.8448 13.9091 11.6866C13.7509 11.5283 13.5363 11.4395 13.3125 11.4395C13.0887 11.4395 12.8741 11.5283 12.7159 11.6866C12.5576 11.8448 12.4688 12.0594 12.4688 12.2832ZM15.8438 9.75195C15.6841 9.75185 15.5276 9.79719 15.3927 9.88269C15.2579 9.96818 15.1501 10.0903 15.082 10.2348C15.5227 10.5699 15.8883 10.9543 16.1578 11.3785C16.34 11.3058 16.4912 11.1719 16.5854 10.9997C16.6795 10.8276 16.7106 10.628 16.6734 10.4354C16.6362 10.2427 16.533 10.0691 16.3816 9.94434C16.2301 9.8196 16.0399 9.75156 15.8438 9.75195ZM10.7812 0.939453C4.98281 0.939453 0.28125 5.64102 0.28125 11.4395C0.28125 17.2379 4.98281 21.9395 10.7812 21.9395C16.5797 21.9395 21.2812 17.2379 21.2812 11.4395C21.2812 5.64102 16.5797 0.939453 10.7812 0.939453ZM16.5234 12.1402C16.6313 12.4566 16.6875 12.7871 16.6875 13.127C16.6875 15.4566 14.0437 17.3457 10.7812 17.3457C7.51875 17.3457 4.875 15.4566 4.875 13.127C4.875 12.7871 4.93125 12.4566 5.03906 12.1402C4.68486 11.9841 4.39511 11.7109 4.21838 11.3665C4.04164 11.0221 3.98867 10.6274 4.06833 10.2486C4.14799 9.8698 4.35545 9.52988 4.65593 9.28584C4.95642 9.04181 5.33165 8.90848 5.71875 8.9082C6.35391 8.9082 6.90469 9.25742 7.19297 9.77539C8.04141 9.31133 9.07266 9.00664 10.1953 8.9293L11.5641 5.85664C11.6648 5.62695 11.9203 5.50977 12.1617 5.58008L14.3086 6.20117C14.4423 5.95295 14.655 5.75643 14.913 5.64277C15.171 5.5291 15.4595 5.50479 15.7329 5.57367C16.0063 5.64256 16.2489 5.8007 16.4222 6.02305C16.5956 6.2454 16.6897 6.51924 16.6898 6.80117C16.6898 7.49961 16.1227 8.0668 15.4242 8.0668C14.8734 8.0668 14.4047 7.71289 14.2313 7.2207L12.3047 6.66523L11.2969 8.92695C12.4477 8.99726 13.5047 9.3043 14.3719 9.77773C14.6602 9.25977 15.2109 8.91055 15.8461 8.91055C16.7789 8.91055 17.5336 9.66523 17.5336 10.598C17.5312 11.2848 17.1164 11.8777 16.5234 12.1402ZM12.5086 14.0855C12.1594 14.3598 11.4703 14.6551 10.7812 14.6551C10.0922 14.6551 9.40078 14.3598 9.05391 14.0855C8.83594 13.9145 8.52187 13.952 8.35078 14.1699C8.17969 14.3879 8.21719 14.702 8.43516 14.873C9.0375 15.3512 9.95859 15.6582 10.7812 15.6582C11.6039 15.6582 12.525 15.3512 13.1297 14.873C13.3477 14.702 13.3852 14.3855 13.2141 14.1699C13.1316 14.0653 13.011 13.9977 12.8788 13.9819C12.7465 13.966 12.6134 14.0033 12.5086 14.0855ZM5.71875 9.75195C5.52255 9.75156 5.33236 9.8196 5.18093 9.94434C5.02949 10.0691 4.92629 10.2427 4.88909 10.4354C4.8519 10.628 4.88304 10.8276 4.97715 10.9997C5.07126 11.1719 5.22245 11.3058 5.40469 11.3785C5.67422 10.9543 6.03984 10.5699 6.48047 10.2348C6.41241 10.0903 6.30464 9.96818 6.16976 9.88269C6.03487 9.79719 5.87845 9.75185 5.71875 9.75195ZM7.40625 12.2832C7.40625 12.507 7.49514 12.7216 7.65338 12.8798C7.81161 13.0381 8.02622 13.127 8.25 13.127C8.47378 13.127 8.68839 13.0381 8.84662 12.8798C9.00486 12.7216 9.09375 12.507 9.09375 12.2832C9.09375 12.0594 9.00486 11.8448 8.84662 11.6866C8.68839 11.5283 8.47378 11.4395 8.25 11.4395C8.02622 11.4395 7.81161 11.5283 7.65338 11.6866C7.49514 11.8448 7.40625 12.0594 7.40625 12.2832Z" fill="white"/>
</svg>
