<svg width="21" height="25" viewBox="0 0 21 25" fill="none" xmlns="http://www.w3.org/2000/svg">
<path d="M20.9277 9.33791C20.9277 8.52291 20.2697 7.85991 19.4517 7.85991C18.6337 7.85991 17.9717 8.51991 17.9717 9.33991V15.5299C17.9717 16.3399 18.6347 17.0099 19.4547 17.0099C20.2687 17.0099 20.9307 16.3399 20.9307 15.5299V9.32991H20.9207L20.9277 9.33791ZM4.17471 8.14291L4.17871 17.7429C4.17871 18.6279 4.88271 19.3329 5.75171 19.3329H6.81471V22.6129C6.81471 23.4329 7.47471 24.0949 8.28471 24.0949C9.09471 24.0949 9.75171 23.4349 9.76471 22.6269V19.3469H11.7577V22.6269C11.7577 23.4499 12.4177 24.1099 13.2277 24.1099C14.0507 24.1099 14.7097 23.4499 14.7097 22.6199V19.3399H15.7877C16.6577 19.3399 17.3607 18.6299 17.3607 17.7619V8.13191L4.13171 8.14091L4.17171 8.14291H4.17471ZM13.8227 5.21291C13.5127 5.21291 13.2627 4.96291 13.2627 4.65291C13.2627 4.34791 13.5127 4.09491 13.8227 4.09291C14.1327 4.09291 14.3827 4.34791 14.3827 4.65291C14.3827 4.96291 14.1327 5.21291 13.8227 5.21291ZM7.76271 5.21291C7.45271 5.21291 7.20271 4.96291 7.20271 4.65291C7.20271 4.34591 7.45271 4.09491 7.76271 4.09491C8.07271 4.09491 8.32271 4.34991 8.32271 4.66491C8.32271 4.97991 8.09971 5.21291 7.78171 5.21291H7.76271ZM15.0717 0.44091C15.1317 0.33591 15.0857 0.214909 14.9957 0.155909C14.8917 0.110909 14.7717 0.14091 14.7117 0.24591L13.6617 2.14591C12.7937 1.74091 11.8057 1.51591 10.7717 1.51591C9.73771 1.51591 8.75371 1.73091 7.87971 2.11891L6.84571 0.21591C6.79271 0.11791 6.66571 0.0809095 6.56771 0.13591C6.46771 0.18091 6.43171 0.315909 6.48771 0.405909L7.51771 2.28091C5.48771 3.32791 4.11771 5.32091 4.11771 7.61091H17.4457C17.4457 5.32091 16.0707 3.37891 14.0427 2.33191L15.0717 0.44091ZM2.11171 7.85291C1.29471 7.85291 0.631714 8.51791 0.631714 9.33591V15.5279C0.631714 16.3479 1.29571 17.0079 2.11571 17.0079C2.92971 17.0079 3.59271 16.3479 3.59271 15.5279V9.33791C3.59271 8.52291 2.93271 7.85991 2.12271 7.85991L2.11171 7.85291Z" fill="white"/>
</svg>
