<svg width="22" height="15" viewBox="0 0 22 15" fill="none" xmlns="http://www.w3.org/2000/svg">
<path d="M20.843 2.3793C20.7234 1.93407 20.489 1.52806 20.1633 1.20188C19.8375 0.875704 19.4318 0.640809 18.9867 0.520703C17.3484 0.0800782 10.7812 0.0800781 10.7812 0.0800781C10.7812 0.0800781 4.21406 0.080078 2.57578 0.518359C2.13052 0.638076 1.72459 0.872841 1.39876 1.19908C1.07294 1.52531 0.838686 1.93154 0.719531 2.37695C0.28125 4.01758 0.28125 7.43945 0.28125 7.43945C0.28125 7.43945 0.28125 10.8613 0.719531 12.4996C0.960937 13.4043 1.67344 14.1168 2.57578 14.3582C4.21406 14.7988 10.7812 14.7988 10.7812 14.7988C10.7812 14.7988 17.3484 14.7988 18.9867 14.3582C19.8914 14.1168 20.6016 13.4043 20.843 12.4996C21.2812 10.8613 21.2812 7.43945 21.2812 7.43945C21.2812 7.43945 21.2812 4.01758 20.843 2.3793ZM8.69531 10.5801V4.29883L14.1328 7.41602L8.69531 10.5801Z" fill="white"/>
</svg>
