<svg width="24" height="28" viewBox="0 0 24 28" fill="none" xmlns="http://www.w3.org/2000/svg">
<path d="M12.3671 0.110352C12.1868 0.110352 12.0007 0.119351 11.8099 0.133975C6.89291 0.508573 8.19689 5.54146 8.12245 7.21872C8.03288 8.44825 7.77348 9.41681 6.89989 10.6171C5.87043 11.7994 4.42569 13.7106 3.74055 15.7029C3.41717 16.6388 3.26362 17.5972 3.4067 18.5028C3.36133 18.541 3.31829 18.5793 3.27758 18.6546C2.97514 18.9561 2.75529 19.3307 2.50752 19.5985C2.27604 19.8223 1.94335 19.8988 1.58042 20.0484C1.21633 20.2014 0.815017 20.351 0.575391 20.8145C0.4707 21.026 0.417192 21.2566 0.421844 21.4906C0.421844 21.7144 0.453252 21.9417 0.485822 22.0935C0.55329 22.5424 0.620757 22.9136 0.531188 23.1847C0.242707 23.9496 0.206646 24.4739 0.409049 24.8552C0.611451 25.2309 1.03138 25.3828 1.50132 25.5313C2.44471 25.7563 3.7231 25.6831 4.7293 26.2051C5.80645 26.7304 6.89989 26.9599 7.77231 26.7338C8.38417 26.6045 8.90065 26.213 9.1775 25.6708C9.86032 25.6674 10.6083 25.3682 11.8064 25.295C12.6195 25.2298 13.6373 25.5954 14.8052 25.5189C14.8343 25.6708 14.8785 25.7428 14.9378 25.8946L14.9413 25.898C15.3961 26.7732 16.236 27.1714 17.1328 27.1028C18.0297 27.0353 18.9847 26.4998 19.7583 25.6336C20.4923 24.7731 21.716 24.4142 22.5244 23.9429C22.9292 23.719 23.2561 23.4153 23.2794 22.9833C23.3061 22.5334 23.0479 22.0699 22.4488 21.4343V21.3252L22.4453 21.3218C22.2476 21.0968 22.1545 20.72 22.0522 20.2802C21.9533 19.8291 21.8405 19.396 21.4798 19.1035H21.4764C21.4077 19.0427 21.3333 19.0281 21.2577 18.9516C21.1925 18.9089 21.1169 18.8819 21.0367 18.8796C21.538 17.442 21.3438 16.0111 20.8354 14.7242C20.2154 13.138 19.1313 11.7566 18.3054 10.8061C17.3795 9.67554 16.4721 8.60462 16.4896 7.01623C16.521 4.59541 16.7653 0.117101 12.3671 0.110352ZM12.9824 3.9407H12.9976C13.2453 3.9407 13.4582 4.01045 13.6769 4.16344C13.8991 4.3153 14.0607 4.53691 14.1875 4.76302C14.3097 5.05437 14.3713 5.27936 14.3806 5.57746C14.3806 5.55496 14.3876 5.53246 14.3876 5.51109V5.62808C14.3853 5.62021 14.383 5.61121 14.383 5.60446L14.3783 5.57746C14.376 5.85081 14.3167 6.1208 14.2038 6.37165C14.1492 6.51227 14.0654 6.64163 13.9561 6.7485C13.9223 6.7305 13.8898 6.71475 13.8537 6.70125C13.7316 6.65063 13.6222 6.62926 13.5222 6.55164C13.4396 6.52014 13.3535 6.49427 13.2674 6.4774C13.3244 6.41103 13.4361 6.32778 13.4791 6.25466C13.5408 6.11067 13.5745 5.95768 13.5815 5.80244V5.78107C13.5838 5.62921 13.5606 5.47622 13.5105 5.3311C13.4582 5.17924 13.3931 5.10499 13.2977 4.95538C13.2 4.88113 13.1034 4.80689 12.9871 4.80689H12.9685C12.8603 4.80689 12.7637 4.84064 12.6637 4.95538C12.5532 5.06112 12.4706 5.18824 12.4252 5.3311C12.3636 5.47397 12.3275 5.62808 12.3206 5.78107V5.80244C12.3229 5.90256 12.3299 6.0038 12.3438 6.1028C12.1193 6.02743 11.8343 5.95093 11.6377 5.87556C11.6261 5.80244 11.6191 5.72707 11.6168 5.6517V5.62921C11.6075 5.33223 11.6668 5.0375 11.7913 4.76414C11.8867 4.51779 12.0612 4.30743 12.2915 4.16456C12.4904 4.01945 12.7323 3.9407 12.9824 3.9407ZM9.53694 4.00707H9.57881C9.74399 4.00707 9.89289 4.06107 10.0429 4.15894C10.2128 4.30405 10.35 4.48291 10.4431 4.68202C10.5478 4.90588 10.6071 5.13312 10.6211 5.43234V5.43684C10.6292 5.58758 10.628 5.66295 10.6187 5.73607V5.82607C10.5838 5.83394 10.5536 5.84632 10.5222 5.85307C10.3454 5.91494 10.2035 6.00493 10.065 6.07805C10.079 5.97793 10.0802 5.87669 10.0685 5.7777V5.76082C10.0546 5.61121 10.0232 5.53696 9.97315 5.38622C9.93709 5.27148 9.87079 5.16911 9.78005 5.08587C9.72305 5.03525 9.64628 5.00938 9.56718 5.01388H9.54275C9.46016 5.02062 9.39153 5.06 9.32639 5.16236C9.25195 5.24898 9.20425 5.35473 9.1868 5.46609C9.1554 5.58758 9.14609 5.71245 9.16005 5.83844V5.85419C9.17401 6.00605 9.20309 6.0803 9.25427 6.22991C9.30662 6.38065 9.36711 6.4549 9.44621 6.53139C9.459 6.54152 9.47063 6.55164 9.48575 6.55839C9.40433 6.62251 9.34966 6.63713 9.28103 6.71138C9.23799 6.74288 9.18797 6.77887 9.12864 6.78787C9.00767 6.64726 8.90065 6.49539 8.80875 6.33566C8.69708 6.09942 8.63892 5.84294 8.62845 5.58533C8.60868 5.3311 8.64125 5.07687 8.72151 4.83389C8.78549 4.61228 8.89832 4.40754 9.05071 4.23206C9.1996 4.08244 9.35315 4.00707 9.53694 4.00707ZM11.1317 5.92618C11.5168 5.92618 11.9832 5.9993 12.5451 6.37503C12.8859 6.60001 13.1534 6.67763 13.7699 6.90149H13.7734C14.0701 7.05448 14.2445 7.20072 14.3295 7.35033V7.20297C14.4144 7.36833 14.4202 7.56069 14.3481 7.73168C14.205 8.08153 13.7478 8.45613 13.1104 8.67999V8.68224C12.7986 8.8341 12.5276 9.05684 12.2089 9.20532C11.8878 9.35719 11.5249 9.5338 11.0317 9.50568C10.8549 9.51468 10.6769 9.4888 10.5106 9.43031C10.3826 9.36281 10.257 9.28857 10.136 9.20757C9.90917 9.05571 9.71375 8.8341 9.4241 8.68449V8.67886H9.41829C8.95299 8.40213 8.70174 8.1029 8.62031 7.87904C8.54005 7.57757 8.61449 7.35146 8.84481 7.20409C9.10538 7.05223 9.28684 6.89924 9.40666 6.82612C9.52763 6.74288 9.573 6.71138 9.61138 6.67876H9.61371V6.67538C9.8103 6.44815 10.1209 6.14779 10.5897 5.9993C10.7514 5.95881 10.9317 5.92618 11.1317 5.92618ZM14.3876 8.33689C14.8052 9.9309 15.78 12.246 16.407 13.3687C16.7397 13.9694 17.4016 15.2349 17.6889 16.7704C17.8703 16.7648 18.0716 16.7907 18.2856 16.8424C19.0371 14.9627 17.6505 12.9423 17.0189 12.381C16.7618 12.1549 16.749 12.0041 16.8758 12.0041C17.5609 12.6048 18.4636 13.7725 18.7905 15.1055C18.9405 15.7074 18.9754 16.3474 18.8149 16.9841C18.8928 17.0156 18.9719 17.0528 19.0533 17.0595C20.2538 17.6602 20.697 18.1147 20.4841 18.7885V18.7401C20.4132 18.7368 20.3445 18.7401 20.2736 18.7401H20.2561C20.4318 18.2148 20.0444 17.8121 19.0173 17.3632C17.9529 16.9133 17.1026 16.9853 16.9572 17.8863C16.9491 17.9347 16.9432 17.9606 16.9374 18.0382C16.8583 18.0641 16.7757 18.0978 16.6943 18.1102C16.1941 18.4117 15.9242 18.8628 15.7719 19.4455C15.6206 20.045 15.5741 20.7459 15.5334 21.5479V21.5513C15.509 21.927 15.3345 22.494 15.1623 23.0711C13.4175 24.277 10.998 24.8012 8.9402 23.4468C8.81108 23.2297 8.65404 23.0261 8.47258 22.8472C8.3865 22.7066 8.27716 22.5806 8.15269 22.4715C8.3644 22.4715 8.54586 22.4389 8.69359 22.3961C8.86226 22.3208 8.99254 22.1846 9.05885 22.0204C9.18448 21.7201 9.05885 21.2363 8.65753 20.7121C8.25622 20.1868 7.57456 19.5928 6.57767 19.0011C5.84484 18.5523 5.43073 18.0224 5.23995 17.4307C5.04802 16.83 5.07361 16.2102 5.22251 15.5802C5.5075 14.3766 6.23801 13.2067 6.70446 12.4721C6.82893 12.399 6.7475 12.624 6.22987 13.5678C5.76923 14.4126 4.90262 16.3767 6.08795 17.9032C6.13215 16.7907 6.38807 15.6927 6.84056 14.6679C7.49663 13.2303 8.86808 10.7262 8.97626 8.74186C9.03209 8.78235 9.22868 8.89372 9.31243 8.96909C9.56602 9.11871 9.75446 9.34369 9.99874 9.49218C10.2442 9.71829 10.5536 9.86903 11.0177 9.86903C11.0631 9.8724 11.105 9.87578 11.1469 9.87578C11.6249 9.87578 11.9948 9.72504 12.3054 9.5743C12.6428 9.42356 12.9115 9.19858 13.1662 9.12433H13.172C13.7153 8.97247 14.1445 8.67211 14.3876 8.33689ZM16.9304 18.4139C16.9735 19.09 17.3294 19.8144 17.9564 19.9629C18.6404 20.1137 19.6245 19.5883 20.0398 19.1024L20.2852 19.0922C20.6516 19.0832 20.9564 19.1035 21.2705 19.3926L21.274 19.396C21.5159 19.6198 21.6287 19.9933 21.7288 20.3814C21.8277 20.8325 21.9079 21.2588 22.2045 21.5806C22.7699 22.1734 22.9548 22.5997 22.9444 22.863L22.9478 22.8562V22.8765L22.9444 22.863C22.9269 23.1577 22.7292 23.3084 22.3651 23.5323C21.6322 23.9834 20.3341 24.3332 19.507 25.2984C18.7881 26.1275 17.9122 26.5797 17.1387 26.6382C16.3663 26.6978 15.6997 26.4132 15.3077 25.628L15.3019 25.6246C15.0576 25.1736 15.1623 24.4716 15.3671 23.7235C15.5718 22.9721 15.8649 22.2105 15.9056 21.5884C15.9487 20.7852 15.994 20.0867 16.1325 19.5478C16.2721 19.0247 16.4907 18.6513 16.8781 18.4409L16.9304 18.4162V18.4139ZM4.35008 18.469H4.36171C4.42337 18.469 4.48385 18.4747 4.54434 18.4848C4.98172 18.5467 5.36558 18.8594 5.73433 19.3307L6.79287 21.2026L6.79636 21.206C7.07903 21.8055 7.67344 22.4029 8.17944 23.0486C8.68429 23.7213 9.07513 24.3209 9.02744 24.8147V24.8215C8.96114 25.6584 8.47025 26.1129 7.7188 26.2771C6.96852 26.429 5.95069 26.2794 4.93286 25.7551C3.80685 25.1522 2.46913 25.2276 1.60951 25.0779C1.18027 25.0037 0.89877 24.8518 0.768488 24.6268C0.639369 24.403 0.637043 23.9508 0.911566 23.2432V23.2398L0.913892 23.2364C1.04999 22.8607 0.948789 22.3894 0.882485 21.9777C0.818507 21.5266 0.785936 21.1801 0.932504 20.9202C1.11862 20.5445 1.39314 20.4714 1.73397 20.3207C2.07712 20.1688 2.4796 20.0934 2.79949 19.7931H2.80182V19.7897C3.09961 19.4882 3.31946 19.1136 3.57886 18.847C3.79987 18.6209 4.02089 18.469 4.35008 18.469ZM12.6777 8.26152C12.1717 8.48763 11.5784 8.86335 10.9468 8.86335C10.3163 8.86335 9.81844 8.563 9.459 8.33914C9.2787 8.1884 9.1333 8.03766 9.02395 7.96229C8.83318 7.81155 8.85645 7.58657 8.93787 7.58657C9.06466 7.60456 9.08793 7.73843 9.16936 7.81267C9.28103 7.88692 9.41945 8.03653 9.58928 8.18727C9.92778 8.41226 10.3803 8.71261 10.9456 8.71261C11.5098 8.71261 12.1705 8.41226 12.5718 8.1884C12.7986 8.03653 13.0894 7.81267 13.3256 7.66306C13.5071 7.50895 13.4989 7.36158 13.6501 7.36158C13.8002 7.37958 13.6897 7.51232 13.4791 7.73618C13.2686 7.88804 12.944 8.1119 12.6777 8.26152ZM11.419 6.47965V6.4549C11.4121 6.43352 11.4342 6.40765 11.4528 6.39865C11.5389 6.35028 11.6622 6.36828 11.7552 6.40315C11.8285 6.40315 11.9413 6.47852 11.9297 6.55501C11.9227 6.61014 11.8308 6.62926 11.7727 6.62926C11.7087 6.62926 11.6657 6.58089 11.6087 6.55276C11.5482 6.53252 11.4388 6.54377 11.419 6.47965ZM10.7781 6.47965C10.7548 6.54489 10.6467 6.53477 10.585 6.55389C10.5303 6.58201 10.485 6.63038 10.4233 6.63038C10.364 6.63038 10.2709 6.60901 10.264 6.55389C10.2535 6.47964 10.3663 6.40428 10.4384 6.40428C10.5327 6.3694 10.6525 6.3514 10.7397 6.39865C10.7618 6.40877 10.7816 6.4324 10.7746 6.4549V6.47852L10.7781 6.47965Z" fill="white"/>
</svg>
