<svg width="25" height="19" viewBox="0 0 25 19" fill="none" xmlns="http://www.w3.org/2000/svg">
<path d="M20.6007 1.85006C19.0445 1.13586 17.4023 0.626127 15.7152 0.333561C15.6999 0.330987 15.6842 0.333211 15.6703 0.339926C15.6563 0.346641 15.6447 0.357518 15.6372 0.371061C15.4257 0.746061 15.1917 1.23656 15.0282 1.62056C13.2096 1.34457 11.3598 1.34457 9.54121 1.62056C9.35883 1.19279 9.1525 0.775631 8.92321 0.371061C8.91552 0.357666 8.90395 0.346914 8.89002 0.340221C8.8761 0.333527 8.86048 0.331206 8.84521 0.333561C7.15771 0.624561 5.51521 1.13456 3.95971 1.85006C3.9464 1.85514 3.93527 1.86468 3.92821 1.87706C0.817212 6.52556 -0.0362877 11.0601 0.382212 15.5376C0.383712 15.5586 0.397212 15.5796 0.413712 15.5931C2.2253 16.935 4.2516 17.9595 6.40621 18.6231C6.42142 18.6279 6.43777 18.6277 6.45288 18.6226C6.46798 18.6174 6.48106 18.6076 6.49021 18.5946C6.95221 17.9646 7.36321 17.3001 7.71721 16.6011C7.72459 16.5867 7.72712 16.5703 7.72441 16.5543C7.72171 16.5384 7.71392 16.5237 7.70221 16.5126C7.69446 16.5052 7.68526 16.4996 7.67521 16.4961C7.02895 16.2477 6.40305 15.9493 5.80321 15.6036C5.78646 15.5941 5.774 15.5785 5.76841 15.5601C5.76283 15.5416 5.76455 15.5218 5.77321 15.5046C5.77832 15.4934 5.78603 15.4836 5.79571 15.4761C5.92171 15.3816 6.04771 15.2826 6.16771 15.1836C6.17831 15.175 6.19103 15.1696 6.20451 15.1677C6.21798 15.1659 6.23171 15.1677 6.24421 15.1731C10.1727 16.9671 14.4252 16.9671 18.3057 15.1731C18.3187 15.1674 18.3329 15.1655 18.3469 15.1673C18.3609 15.1692 18.3742 15.1748 18.3852 15.1836C18.5052 15.2826 18.6312 15.3816 18.7572 15.4761C18.7674 15.4835 18.7756 15.4934 18.7811 15.5048C18.7865 15.5162 18.7891 15.5288 18.7885 15.5414C18.7879 15.5541 18.7842 15.5663 18.7777 15.5772C18.7712 15.588 18.7621 15.5971 18.7512 15.6036C18.1527 15.9525 17.526 16.2505 16.8777 16.4946C16.8674 16.4983 16.858 16.5043 16.8502 16.5121C16.8424 16.5198 16.8365 16.5292 16.8327 16.5396C16.8292 16.5496 16.8279 16.5602 16.8286 16.5708C16.8294 16.5813 16.8323 16.5917 16.8372 16.6011C17.1972 17.2986 17.6097 17.9646 18.0627 18.5946C18.0719 18.6076 18.0849 18.6174 18.1 18.6226C18.1152 18.6277 18.1315 18.6279 18.1467 18.6231C20.3049 17.9616 22.3345 16.9369 24.1482 15.5931C24.1573 15.5868 24.1648 15.5785 24.1703 15.5689C24.1758 15.5593 24.179 15.5486 24.1797 15.5376C24.6807 10.3611 23.3412 5.86406 20.6307 1.87856C20.628 1.87198 20.6239 1.86604 20.6187 1.86113C20.6136 1.85622 20.6074 1.85245 20.6007 1.85006ZM8.30371 12.8106C7.12021 12.8106 6.14671 11.7246 6.14671 10.3926C6.14671 9.05906 7.10221 7.97306 8.30371 7.97306C9.51421 7.97306 10.4787 9.06806 10.4607 10.3926C10.4607 11.7246 9.50521 12.8106 8.30371 12.8106ZM16.2777 12.8106C15.0957 12.8106 14.1207 11.7246 14.1207 10.3926C14.1207 9.05906 15.0762 7.97306 16.2777 7.97306C17.4882 7.97306 18.4542 9.06806 18.4347 10.3926C18.4347 11.7246 17.4882 12.8106 16.2777 12.8106Z" fill="white"/>
</svg>
