<svg width="19" height="15" viewBox="0 0 19 15" fill="none" xmlns="http://www.w3.org/2000/svg">
<path d="M2.36133 2.51611C2.04492 2.51611 1.79883 2.79736 1.79883 3.07861V3.8872L7.84571 8.84424C8.58399 9.44189 9.60352 9.44189 10.3418 8.84424L16.4238 3.8872V3.07861C16.4238 2.79736 16.1425 2.51611 15.8613 2.51611H2.36133ZM1.79883 6.06689V12.0787C1.79883 12.3951 2.04492 12.6412 2.36133 12.6412H15.8613C16.1425 12.6412 16.4238 12.3951 16.4238 12.0787V6.06689L11.4316 10.145C10.0605 11.2701 8.12695 11.2701 6.79102 10.145L1.79883 6.06689ZM0.111328 3.07861C0.111328 1.84814 1.0957 0.828613 2.36133 0.828613H15.8613C17.0918 0.828613 18.1113 1.84814 18.1113 3.07861V12.0787C18.1113 13.3443 17.0918 14.3287 15.8613 14.3287H2.36133C1.0957 14.3287 0.111328 13.3443 0.111328 12.0787V3.07861Z" fill="url(#paint0_linear_1_461)"/>
<defs>
<linearGradient id="paint0_linear_1_461" x1="2.68358" y1="13.7574" x2="15.5354" y2="0.916547" gradientUnits="userSpaceOnUse">
<stop stop-color="#5F38FB"/>
<stop offset="0.640625" stop-color="#CF447B"/>
<stop offset="1" stop-color="#F9774B"/>
</linearGradient>
</defs>
</svg>
