<svg width="20" height="16" viewBox="0 0 20 16" fill="none" xmlns="http://www.w3.org/2000/svg">
<path d="M0.121582 1.50345C0.121582 0.722475 0.707306 0.214844 1.37114 0.214844C1.64447 0.214844 1.91782 0.33199 2.1521 0.527232L8.86846 6.6188V1.50345C8.86846 0.722475 9.45418 0.214844 10.118 0.214844C10.3913 0.214844 10.6647 0.33199 10.9381 0.56628L17.6153 6.65785V1.19106C17.6153 0.683426 18.0448 0.253892 18.5526 0.253892C19.0602 0.253892 19.4897 0.644378 19.4897 1.19106V14.2723C19.4897 14.819 19.0602 15.2095 18.5526 15.2095C18.0059 15.2095 17.6153 14.819 17.6153 14.2723V8.88362L10.899 14.9361C10.6647 15.1314 10.3913 15.2095 10.118 15.2095C9.45418 15.2095 8.86846 14.7409 8.86846 13.9599V8.88362L2.1521 14.9361C1.91782 15.1314 1.64447 15.2095 1.37114 15.2095C0.707306 15.2095 0.121582 14.7409 0.121582 13.9599V1.50345ZM10.7428 2.90919V12.5542L16.0534 7.75122L10.7428 2.90919ZM1.99591 2.90919V12.5542L7.30652 7.75122L1.99591 2.90919Z" fill="white"/>
</svg>
