<svg width="17" height="16" viewBox="0 0 17 16" fill="none" xmlns="http://www.w3.org/2000/svg">
<path d="M6.96631 1.58203L7.74678 0.801562C8.07725 0.471094 8.61162 0.471094 8.93857 0.801562L15.7729 7.63242C16.1034 7.96289 16.1034 8.49727 15.7729 8.82422L8.93857 15.6586C8.60811 15.9891 8.07373 15.9891 7.74678 15.6586L6.96631 14.8781C6.63232 14.5441 6.63936 13.9992 6.98037 13.6723L11.2167 9.63633H1.11279C0.645215 9.63633 0.269043 9.26016 0.269043 8.79258V7.66758C0.269043 7.2 0.645215 6.82383 1.11279 6.82383H11.2167L6.98037 2.78789C6.63584 2.46094 6.62881 1.91602 6.96631 1.58203Z" fill="white"/>
</svg>
