<svg width="22" height="21" viewBox="0 0 22 21" fill="none" xmlns="http://www.w3.org/2000/svg">
<path d="M11.2738 0.277833C5.47773 0.275489 0.783203 4.96768 0.783203 10.7591C0.783203 15.3388 3.71992 19.2317 7.80976 20.6614C8.36055 20.7997 8.27617 20.4083 8.27617 20.1411V18.3247C5.0957 18.6974 4.9668 16.5927 4.75352 16.2411C4.32227 15.5052 3.30273 15.3177 3.60742 14.9661C4.33164 14.5935 5.06992 15.0599 5.92539 16.3231C6.54414 17.2396 7.75117 17.0849 8.36289 16.9325C8.49648 16.3817 8.78242 15.8896 9.17617 15.5075C5.88086 14.9169 4.50742 12.906 4.50742 10.5153C4.50742 9.35518 4.88945 8.28877 5.63945 7.42861C5.16133 6.01065 5.68398 4.79658 5.7543 4.61611C7.11602 4.49424 8.53164 5.59111 8.6418 5.67783C9.41523 5.46924 10.2988 5.35908 11.2879 5.35908C12.2816 5.35908 13.1676 5.47393 13.948 5.68486C14.2129 5.4833 15.5254 4.54111 16.791 4.65596C16.859 4.83643 17.3699 6.02237 16.9199 7.42158C17.6793 8.28408 18.066 9.35987 18.066 10.5224C18.066 12.9177 16.6832 14.931 13.3785 15.5122C13.6616 15.7906 13.8863 16.1226 14.0396 16.4887C14.193 16.8549 14.2718 17.248 14.2715 17.645V20.2817C14.2902 20.4927 14.2715 20.7013 14.623 20.7013C18.7738 19.3021 21.7621 15.381 21.7621 10.7614C21.7621 4.96768 17.0652 0.277833 11.2738 0.277833Z" fill="white"/>
</svg>
