<svg width="220" height="222" viewBox="0 0 220 222" fill="none" xmlns="http://www.w3.org/2000/svg">
<path d="M108.785 82.7865C134.238 81.9287 147.679 114.802 128.917 132.023C118.255 142.643 99.4832 142.293 89.4271 131.246C73.1783 114.181 84.3073 83.0823 108.785 82.7865ZM108.785 91.3969C79.013 91.8883 79.1371 132.693 108.786 133.412C135.85 131.831 135.893 92.8254 108.785 91.3969ZM109.108 0.971929C207.635 0.877903 256.876 120.412 186.944 189.852C117.821 257.871 0.625576 208.824 0.534545 111.882C-0.521891 52.8847 49.7416 0.578733 109.108 0.971929ZM109.108 9.58239C53.5505 8.17724 4.11203 55.7156 4.83301 111.883C5.25004 204.253 116.917 250.158 181.78 184.675C245.12 119.906 199.57 10.1865 109.108 9.58239ZM109.026 27.8238C183.856 27.665 221.213 118.456 167.991 171.067C136.678 202.951 81.5858 202.5 50.9564 170.168C-0.0553045 118.498 36.184 28.7519 109.026 27.8238ZM109.026 36.4342C40.2773 35.8608 5.49876 117.874 54.3318 166.789C83.1348 196.344 134.704 195.88 162.825 165.89C209.458 117.952 175.791 36.9737 109.026 36.4342ZM109.417 54.0829C160.875 53.7095 186.644 116.615 149.922 152.575C128.507 174.238 90.5708 173.702 69.8848 151.6C35.2674 116.844 60.0613 54.6247 109.417 54.0829ZM109.417 62.6934C64.0283 61.9221 40.7919 115.975 73.2601 148.221C92.3206 167.637 126.276 167.101 144.604 147.247C174.985 116.24 152.687 62.9027 109.417 62.6934Z" fill="#1A8A83"/>
</svg>
