<svg width="17" height="17" viewBox="0 0 17 17" fill="none" xmlns="http://www.w3.org/2000/svg">
<path d="M7.6084 1.79248L8.38887 1.01201C8.71934 0.681543 9.25371 0.681543 9.58066 1.01201L16.415 7.84287C16.7455 8.17334 16.7455 8.70772 16.415 9.03467L9.58066 15.869C9.2502 16.1995 8.71582 16.1995 8.38887 15.869L7.6084 15.0886C7.27441 14.7546 7.28145 14.2097 7.62246 13.8827L11.8588 9.84678H1.75488C1.2873 9.84678 0.911133 9.47061 0.911133 9.00303V7.87803C0.911133 7.41045 1.2873 7.03428 1.75488 7.03428H11.8588L7.62246 2.99834C7.27793 2.67139 7.2709 2.12646 7.6084 1.79248Z" fill="white"/>
</svg>
