<svg width="22" height="21" viewBox="0 0 22 21" fill="none" xmlns="http://www.w3.org/2000/svg">
<path d="M10.7719 0.22754C4.97578 0.225196 0.28125 4.91738 0.28125 10.7088C0.28125 15.2885 3.21797 19.1814 7.30781 20.6111C7.85859 20.7494 7.77422 20.358 7.77422 20.0908V18.2744C4.59375 18.6471 4.46484 16.5424 4.25156 16.1908C3.82031 15.4549 2.80078 15.2674 3.10547 14.9158C3.82969 14.5432 4.56797 15.0096 5.42344 16.2729C6.04219 17.1893 7.24922 17.0346 7.86094 16.8822C7.99453 16.3314 8.28047 15.8393 8.67422 15.4572C5.37891 14.8666 4.00547 12.8557 4.00547 10.465C4.00547 9.30488 4.3875 8.23848 5.1375 7.37832C4.65937 5.96035 5.18203 4.74629 5.25234 4.56582C6.61406 4.44395 8.02969 5.54082 8.13984 5.62754C8.91328 5.41895 9.79687 5.30879 10.7859 5.30879C11.7797 5.30879 12.6656 5.42363 13.4461 5.63457C13.7109 5.43301 15.0234 4.49082 16.2891 4.60567C16.357 4.78613 16.868 5.97207 16.418 7.37129C17.1773 8.23379 17.5641 9.30957 17.5641 10.4721C17.5641 12.8674 16.1812 14.8807 12.8766 15.4619C13.1596 15.7403 13.3844 16.0723 13.5377 16.4385C13.691 16.8047 13.7698 17.1977 13.7695 17.5947V20.2314C13.7883 20.4424 13.7695 20.651 14.1211 20.651C18.2719 19.2518 21.2602 15.3307 21.2602 10.7111C21.2602 4.91738 16.5633 0.22754 10.7719 0.22754Z" fill="white"/>
</svg>
